<svg xmlns="http://www.w3.org/2000/svg" viewBox="0 0 512 512" width="512" height="512">
  <defs>
    <linearGradient id="grad" x1="0%" y1="0%" x2="100%" y2="100%">
      <stop offset="0%" style="stop-color:#1D9E75"/>
      <stop offset="100%" style="stop-color:#185FA5"/>
    </linearGradient>
  </defs>
  <rect width="512" height="512" rx="64" fill="#0C1F3F"/>
  <path d="M128 380V180l64 100 64-100v200" stroke="url(#grad)" stroke-width="36" stroke-linecap="round" stroke-linejoin="round" fill="none"/>
  <path d="M296 340c0 22 18 40 40 40h56c22 0 40-18 40-40v-40c0-22-18-40-40-40h-56c-22 0-40-18-40-40v-40c0-22 18-40 40-40h56c22 0 40 18 40 40" stroke="url(#grad)" stroke-width="36" stroke-linecap="round" stroke-linejoin="round" fill="none"/>
</svg>
