<?xml version="1.0" encoding="UTF-8"?>
<!-- Generator: visioncortex VTracer 0.6.12 -->
<svg version="1.1" xmlns="http://www.w3.org/2000/svg" width="166" height="185">
<path d="M0 0 C7.92 0 15.84 0 24 0 C24.023 6.248 24.043 12.496 24.055 18.744 C24.06 20.871 24.067 22.998 24.075 25.126 C24.088 28.176 24.093 31.227 24.098 34.277 C24.103 35.235 24.108 36.192 24.113 37.178 C24.113 38.059 24.113 38.94 24.114 39.847 C24.116 40.627 24.118 41.406 24.12 42.209 C24 44 24 44 23 45 C20.597 45.095 18.222 45.126 15.818 45.114 C15.443 45.114 15.443 45.114 13.542 45.114 C11.047 45.113 8.553 45.105 6.059 45.098 C4.334 45.096 2.609 45.094 0.884 45.093 C-3.665 45.09 -8.214 45.08 -12.763 45.069 C-17.401 45.058 -22.039 45.054 -26.678 45.049 C-35.785 45.038 -44.893 45.021 -54 45 C-54.029 41.021 -54.047 37.042 -54.062 33.062 C-54.071 31.926 -54.079 30.79 -54.088 29.619 C-54.091 28.54 -54.094 27.46 -54.098 26.348 C-54.103 25.347 -54.108 24.347 -54.114 23.317 C-54 21 -54 21 -53 20 C-51.343 19.907 -49.681 19.883 -48.021 19.886 C-46.96 19.887 -45.899 19.887 -44.806 19.887 C-43.652 19.892 -42.498 19.897 -41.309 19.902 C-40.134 19.904 -38.959 19.905 -37.748 19.907 C-33.978 19.912 -30.208 19.925 -26.438 19.938 C-23.889 19.943 -21.34 19.947 -18.791 19.951 C-12.527 19.962 -6.264 19.98 0 20 C0 13.4 0 6.8 0 0 Z " fill="#3D3128" transform="translate(128,133)"/>
<path d="M0 0 C1.158 -0.003 2.315 -0.006 3.508 -0.01 C4.131 -0.009 4.131 -0.009 7.281 -0.003 C7.92 -0.004 7.92 -0.004 11.157 -0.006 C13.86 -0.008 16.562 -0.006 19.265 -0.001 C22.735 0.005 26.205 0.001 29.676 -0.005 C32.982 -0.009 36.287 -0.006 39.593 -0.003 C40.844 -0.005 42.095 -0.007 43.384 -0.01 C44.532 -0.006 45.68 -0.003 46.863 0 C47.371 0 47.371 0 49.942 0.002 C52.238 0.129 52.238 0.129 53.238 1.129 C53.331 2.664 53.355 4.203 53.351 5.741 C53.351 6.231 53.351 6.231 53.351 8.714 C53.346 9.78 53.341 10.847 53.335 11.946 C53.334 13.032 53.332 14.118 53.331 15.237 C53.325 18.722 53.313 22.207 53.3 25.692 C53.295 28.048 53.29 30.404 53.286 32.76 C53.275 38.55 53.259 44.34 53.238 50.129 C50.398 51.076 48.619 51.258 45.675 51.262 C44.796 51.263 43.917 51.265 43.011 51.266 C42.096 51.262 41.181 51.258 40.238 51.254 C39.322 51.258 38.407 51.262 37.464 51.266 C37.025 51.265 37.025 51.265 34.8 51.262 C33.997 51.261 33.194 51.26 32.366 51.259 C30.238 51.129 30.238 51.129 27.238 50.129 C26.908 42.869 26.578 35.609 26.238 28.129 C14.358 27.799 2.478 27.469 -9.762 27.129 C-9.948 23.582 -10.134 20.034 -10.325 16.379 C-10.386 15.267 -10.448 14.155 -10.511 13.009 C-10.532 12.568 -10.532 12.568 -10.641 10.333 C-10.688 9.432 -10.736 8.531 -10.784 7.603 C-10.764 5.255 -10.441 3.367 -9.762 1.129 C-6.452 0.136 -3.449 0.003 0 0 Z " fill="#BB4A21" transform="translate(62.762451171875,39.87060546875)"/>
<path d="M0 0 C8.25 0 16.5 0 25 0 C25.33 6.27 25.66 12.54 26 19 C37.22 19.33 48.44 19.66 60 20 C60 28.25 60 36.5 60 45 C40.2 45 20.4 45 0 45 C0 30.15 0 15.3 0 0 Z " fill="#BF512A" transform="translate(4,133)"/>
<path d="M0 0 C0.419 -0.002 0.419 -0.002 2.538 -0.009 C2.988 -0.003 2.988 -0.003 5.265 0.028 C6.191 0.03 7.116 0.032 8.07 0.034 C10.025 0.041 11.98 0.055 13.936 0.075 C16.94 0.106 19.944 0.116 22.949 0.122 C24.846 0.131 26.743 0.142 28.64 0.153 C29.544 0.158 30.448 0.162 31.38 0.166 C37.703 0.239 37.703 0.239 38.82 1.356 C39.113 7.411 39.134 13.468 39.17 19.529 C39.186 21.574 39.214 23.618 39.252 25.663 C39.307 28.608 39.329 31.551 39.343 34.497 C39.366 35.409 39.389 36.32 39.412 37.26 C39.397 41.74 39.356 43.689 36.473 47.282 C35.597 47.967 34.722 48.651 33.82 49.356 C32.827 50.369 31.836 51.383 30.847 52.399 C29.817 53.448 28.787 54.496 27.757 55.544 C27.241 56.077 26.725 56.61 26.193 57.159 C23.592 59.793 21.299 61.996 17.82 63.356 C16.732 58.971 16.691 54.701 16.722 50.212 C16.724 49.442 16.725 48.672 16.726 47.879 C16.732 45.434 16.745 42.989 16.757 40.544 C16.762 38.881 16.767 37.217 16.771 35.554 C16.782 31.488 16.799 27.422 16.82 23.356 C12.118 22.427 7.572 22.224 2.796 22.259 C2.05 22.26 1.304 22.262 0.535 22.263 C-1.828 22.269 -4.192 22.281 -6.555 22.294 C-8.166 22.299 -9.777 22.304 -11.387 22.308 C-15.318 22.319 -19.249 22.336 -23.18 22.356 C-22.6 18.865 -21.422 17.24 -18.907 14.79 C-18.247 14.14 -17.587 13.489 -16.907 12.819 C-16.213 12.151 -15.52 11.483 -14.805 10.794 C-14.119 10.122 -13.434 9.449 -12.727 8.757 C-11.449 7.505 -10.167 6.255 -8.882 5.01 C-7.18 3.356 -7.18 3.356 -5.835 1.775 C-3.749 -0.013 -2.718 -0.013 0 0 Z " fill="#BD5029" transform="translate(111.18017578125,5.6435546875)"/>
<path d="M0 0 C0.845 0.002 1.69 0.004 2.56 0.006 C3.422 0.005 4.284 0.004 5.172 0.003 C6.998 0.003 8.823 0.004 10.649 0.009 C13.454 0.014 16.259 0.009 19.064 0.002 C20.833 0.003 22.603 0.004 24.372 0.006 C25.217 0.004 26.062 0.002 26.932 0 C32.851 0.024 32.851 0.024 33.966 1.139 C34.066 2.908 34.097 4.68 34.099 6.451 C34.1 6.989 34.1 6.989 34.103 9.709 C34.099 10.841 34.095 11.973 34.091 13.139 C34.093 13.705 34.093 13.705 34.103 16.569 C34.102 17.644 34.1 18.719 34.099 19.826 C34.098 20.82 34.097 21.814 34.096 22.838 C33.966 25.139 33.966 25.139 32.966 26.139 C28.298 26.283 23.638 26.181 18.966 26.139 C18.636 32.739 18.306 39.339 17.966 46.139 C9.716 46.139 1.466 46.139 -7.034 46.139 C-7.057 39.749 -7.077 33.358 -7.089 26.968 C-7.094 24.792 -7.101 22.616 -7.109 20.44 C-7.121 17.32 -7.127 14.2 -7.131 11.08 C-7.137 10.101 -7.142 9.122 -7.147 8.113 C-7.147 7.212 -7.147 6.311 -7.147 5.383 C-7.15 4.586 -7.152 3.789 -7.154 2.968 C-6.878 -1.227 -3.413 0.014 0 0 Z " fill="#BE4A21" transform="translate(11.0338134765625,76.86105346679688)"/>
<path d="M0 0 C6.27 0.165 6.27 0.165 38 1 C38 10.9 38 20.8 38 31 C32.607 31.165 27.213 31.328 21.82 31.482 C19.983 31.536 18.147 31.591 16.311 31.648 C13.677 31.73 11.044 31.805 8.41 31.879 C7.584 31.906 6.758 31.933 5.907 31.961 C3.939 32.013 1.969 32.012 0 32 C-2.731 29.269 -1.546 21.378 -1.688 17.688 C-1.717 17.063 -1.717 17.063 -1.869 13.9 C-1.916 12.7 -1.963 11.499 -2.012 10.262 C-2.058 9.158 -2.104 8.054 -2.151 6.917 C-2 4 -2 4 0 0 Z " fill="#BC522D" transform="translate(41,112)"/>
<path d="M0 0 C1.075 -0.001 2.15 -0.003 3.258 -0.004 C4.39 -0 5.521 0.004 6.688 0.008 C7.819 0.004 8.951 0 10.117 -0.004 C11.192 -0.003 12.267 -0.001 13.375 0 C13.872 0.001 13.872 0.001 16.387 0.003 C18.688 0.133 18.688 0.133 19.688 1.133 C19.776 4.235 19.803 7.315 19.785 10.418 C19.784 11.349 19.782 12.28 19.781 13.239 C19.775 16.224 19.763 19.21 19.75 22.195 C19.745 24.214 19.74 26.233 19.736 28.252 C19.726 33.212 19.707 38.172 19.688 43.133 C11.108 43.133 2.528 43.133 -6.312 43.133 C-6.335 37.17 -6.355 31.207 -6.367 25.243 C-6.372 23.213 -6.379 21.183 -6.388 19.153 C-6.4 16.241 -6.406 13.33 -6.41 10.418 C-6.415 9.504 -6.42 8.591 -6.426 7.65 C-6.426 5.477 -6.375 3.305 -6.312 1.133 C-4.597 -0.583 -2.339 0.003 0 0 Z " fill="#B94E29" transform="translate(96.3125,99.8671875)"/>
<path d="M0 0 C7.92 0 15.84 0 24 0 C24.023 5.284 24.043 10.567 24.055 15.851 C24.06 17.646 24.067 19.441 24.075 21.237 C24.088 23.826 24.093 26.415 24.098 29.004 C24.103 29.799 24.108 30.594 24.113 31.413 C24.113 31.793 24.113 31.793 24.114 33.717 C24.116 34.377 24.118 35.036 24.12 35.716 C23.956 38.829 23.441 41.914 23 45 C15.41 45 7.82 45 0 45 C0 30.15 0 15.3 0 0 Z " fill="#3D3126" transform="translate(128,78)"/>
<path d="M0 0 C8.58 0 17.16 0 26 0 C26 8.58 26 17.16 26 26 C17.42 26 8.84 26 0 26 C0 17.42 0 8.84 0 0 Z " fill="#44382E" transform="translate(53,77)"/>
<path d="M0 0 C12.54 0 25.08 0 38 0 C38 7.59 38 15.18 38 23 C27 23 27 23 23 22 C23.33 21.01 23.66 20.02 24 19 C25.32 18.67 26.64 18.34 28 18 C28.33 13.05 28.66 8.1 29 3 C29.99 2.67 30.98 2.34 32 2 C21.77 1.67 11.54 1.34 1 1 C1 14.86 1 28.72 1 43 C7.93 43 14.86 43 22 43 C22.33 41.68 22.66 40.36 23 39 C23 40.65 23 42.3 23 44 C15.41 44 7.82 44 0 44 C0 29.48 0 14.96 0 0 Z " fill="#B44823" transform="translate(5,78)"/>
<path d="M0 0 C1.158 -0.003 2.315 -0.006 3.508 -0.01 C4.131 -0.009 4.131 -0.009 7.281 -0.003 C7.92 -0.004 7.92 -0.004 11.157 -0.006 C13.86 -0.008 16.562 -0.006 19.265 -0.001 C22.735 0.005 26.205 0.001 29.676 -0.005 C32.982 -0.009 36.287 -0.006 39.593 -0.003 C40.844 -0.005 42.095 -0.007 43.384 -0.01 C44.532 -0.006 45.68 -0.003 46.863 0 C47.371 0 47.371 0 49.942 0.002 C52.238 0.129 52.238 0.129 53.238 1.129 C53.325 2.837 53.345 4.548 53.335 6.258 C53.334 6.776 53.334 6.776 53.325 9.393 C53.321 9.937 53.321 9.937 53.3 12.692 C53.296 13.784 53.291 14.877 53.286 16.002 C53.275 18.711 53.258 21.42 53.238 24.129 C52.908 24.129 52.578 24.129 52.238 24.129 C52.238 17.199 52.238 10.269 52.238 3.129 C32.768 3.459 13.298 3.789 -6.762 4.129 C-7.937 6.479 -7.963 8.08 -8.079 10.7 C-8.121 11.596 -8.163 12.492 -8.206 13.415 C-8.225 13.883 -8.225 13.883 -8.325 16.254 C-8.368 17.199 -8.411 18.144 -8.456 19.118 C-8.562 21.455 -8.664 23.792 -8.762 26.129 C-8.22 26.127 -8.22 26.127 -5.474 26.114 C-1.461 26.095 2.551 26.084 6.563 26.074 C8.303 26.069 10.042 26.063 11.781 26.054 C14.276 26.042 16.77 26.036 19.265 26.032 C20.047 26.027 20.829 26.021 21.635 26.016 C23.503 26.016 25.371 26.067 27.238 26.129 C28.238 27.129 28.238 27.129 28.351 29.262 C28.346 30.179 28.341 31.095 28.335 32.04 C28.333 32.93 28.33 33.821 28.328 34.739 C28.319 35.878 28.309 37.018 28.3 38.192 C28.279 41.801 28.259 45.411 28.238 49.129 C36.488 49.129 44.738 49.129 53.238 49.129 C53.073 49.459 53.073 49.459 52.238 51.129 C48.633 51.158 45.029 51.176 41.425 51.192 C40.913 51.196 40.913 51.196 38.322 51.217 C37.83 51.219 37.83 51.219 35.343 51.227 C34.437 51.232 33.531 51.238 32.598 51.243 C30.238 51.129 30.238 51.129 27.238 50.129 C26.908 42.869 26.578 35.609 26.238 28.129 C14.358 27.799 2.478 27.469 -9.762 27.129 C-9.948 23.582 -10.134 20.034 -10.325 16.379 C-10.386 15.267 -10.448 14.155 -10.511 13.009 C-10.532 12.568 -10.532 12.568 -10.641 10.333 C-10.688 9.432 -10.736 8.531 -10.784 7.603 C-10.764 5.255 -10.441 3.367 -9.762 1.129 C-6.452 0.136 -3.449 0.003 0 0 Z " fill="#CB8A72" transform="translate(62.762451171875,39.87060546875)"/>
<path d="M0 0 C0.845 0.002 1.69 0.004 2.56 0.006 C3.422 0.005 4.284 0.004 5.172 0.003 C6.998 0.003 8.823 0.004 10.649 0.009 C13.454 0.014 16.259 0.009 19.064 0.002 C20.833 0.003 22.603 0.004 24.372 0.006 C25.217 0.004 26.062 0.002 26.932 0 C32.851 0.024 32.851 0.024 33.966 1.139 C34.066 2.908 34.097 4.68 34.099 6.451 C34.1 6.989 34.1 6.989 34.103 9.709 C34.099 10.841 34.095 11.973 34.091 13.139 C34.093 13.705 34.093 13.705 34.103 16.569 C34.102 17.644 34.1 18.719 34.099 19.826 C34.098 20.82 34.097 21.814 34.096 22.838 C33.966 25.139 33.966 25.139 32.966 26.139 C28.298 26.283 23.638 26.181 18.966 26.139 C18.636 32.739 18.306 39.339 17.966 46.139 C9.716 46.139 1.466 46.139 -7.034 46.139 C-7.057 39.749 -7.077 33.358 -7.089 26.968 C-7.094 24.792 -7.101 22.616 -7.109 20.44 C-7.121 17.32 -7.127 14.2 -7.131 11.08 C-7.137 10.101 -7.142 9.122 -7.147 8.113 C-7.147 7.212 -7.147 6.311 -7.147 5.383 C-7.15 4.586 -7.152 3.789 -7.154 2.968 C-6.878 -1.227 -3.413 0.014 0 0 Z M-6.034 1.139 C-6.034 15.659 -6.034 30.179 -6.034 45.139 C1.556 45.139 9.146 45.139 16.966 45.139 C16.636 38.209 16.306 31.279 15.966 24.139 C21.246 24.139 26.526 24.139 31.966 24.139 C31.966 16.549 31.966 8.959 31.966 1.139 C19.426 1.139 6.886 1.139 -6.034 1.139 Z " fill="#CD8E78" transform="translate(11.0338134765625,76.86105346679688)"/>
<path d="M0 0 C7.59 0 15.18 0 23 0 C23 6.6 23 13.2 23 20 C22.67 20 22.34 20 22 20 C21.67 14.39 21.34 8.78 21 3 C14.4 2.67 7.8 2.34 1 2 C1 15.53 1 29.06 1 43 C19.48 43 37.96 43 57 43 C57 40.36 57 37.72 57 35 C57.33 35 57.66 35 58 35 C58 37.97 58 40.94 58 44 C38.86 44 19.72 44 0 44 C0 29.48 0 14.96 0 0 Z " fill="#A6421B" transform="translate(5,133)"/>
<path d="M0 0 C0.837 -0.003 1.675 -0.006 2.538 -0.01 C3.443 -0.008 4.348 -0.006 5.281 -0.003 C6.208 -0.004 7.135 -0.005 8.09 -0.006 C10.051 -0.007 12.012 -0.005 13.974 -0.001 C16.987 0.004 20 -0.001 23.013 -0.007 C24.915 -0.007 26.817 -0.005 28.719 -0.003 C29.626 -0.005 30.533 -0.007 31.468 -0.01 C37.818 0.014 37.818 0.014 38.933 1.129 C39.026 2.48 39.051 3.836 39.047 5.19 C39.047 6.051 39.047 6.912 39.047 7.799 C39.041 8.734 39.036 9.67 39.031 10.633 C39.03 11.586 39.028 12.539 39.027 13.521 C39.021 16.578 39.009 19.635 38.996 22.692 C38.991 24.759 38.986 26.826 38.982 28.893 C38.971 33.972 38.954 39.051 38.933 44.129 C38.603 44.129 38.273 44.129 37.933 44.129 C37.933 30.269 37.933 16.409 37.933 2.129 C23.743 2.129 9.553 2.129 -5.067 2.129 C-5.727 3.449 -6.387 4.769 -7.067 6.129 C-7.397 6.624 -7.397 6.624 -9.067 9.129 C-10.057 8.799 -11.047 8.469 -12.067 8.129 C-11.112 6.98 -10.153 5.835 -9.192 4.692 C-8.658 4.054 -8.124 3.416 -7.574 2.758 C-5.151 0.14 -3.431 0.004 0 0 Z " fill="#D6A189" transform="translate(111.066650390625,5.87060546875)"/>
<path d="M0 0 C0 0.33 0 0.66 0 1 C-10.56 2.769 -20.992 3.348 -31.693 3.57 C-32.739 3.599 -33.785 3.627 -34.863 3.656 C-35.805 3.675 -36.746 3.694 -37.716 3.713 C-40 4 -40 4 -42 6 C-42 4.68 -42 3.36 -42 2 C-28.015 -0.366 -14.147 -0.211 0 0 Z " fill="#C47A68" transform="translate(96,40)"/>
<path d="M0 0 C7.59 0 15.18 0 23 0 C23 6.6 23 13.2 23 20 C22.67 20 22.34 20 22 20 C21.67 14.39 21.34 8.78 21 3 C14.4 2.67 7.8 2.34 1 2 C1 4.64 1 7.28 1 10 C0.67 10 0.34 10 0 10 C0 6.7 0 3.4 0 0 Z " fill="#AA563D" transform="translate(5,133)"/>
<path d="M0 0 C0.33 1.65 0.66 3.3 1 5 C0.01 5.33 -0.98 5.66 -2 6 C-2.33 6.66 -2.66 7.32 -3 8 C-4.448 9.448 -6.04 9.557 -8 10 C-7.615 5.509 -5.145 0 0 0 Z " fill="#BE5C3D" transform="translate(100,15)"/>
<path d="M0 0 C0 0.66 0 1.32 0 2 C-7.59 2 -15.18 2 -23 2 C-23 5.3 -23 8.6 -23 12 C-23.33 12 -23.66 12 -24 12 C-24 8.04 -24 4.08 -24 0 C-20.375 -0.194 -16.75 -0.381 -13.125 -0.562 C-12.092 -0.619 -11.06 -0.675 -9.996 -0.732 C-9.503 -0.757 -9.503 -0.757 -7.008 -0.879 C-6.097 -0.926 -5.185 -0.973 -4.247 -1.022 C-2 -1 -2 -1 0 0 Z " fill="#A84A28" transform="translate(115,102)"/>
<path d="M0 0 C2.235 3.352 2.271 4.578 2.25 8.5 C2.255 9.459 2.26 10.418 2.266 11.406 C2 14 2 14 0 17 C-0.66 16.67 -1.32 16.34 -2 16 C-1.859 13.896 -1.712 11.791 -1.562 9.688 C-1.481 8.516 -1.4 7.344 -1.316 6.137 C-1 3 -1 3 0 0 Z " fill="#BD5A35" transform="translate(147,37)"/>
<path d="M0 0 C-2.97 2.97 -5.94 5.94 -9 9 C-9.66 8.67 -10.32 8.34 -11 8 C-10.688 6.062 -10.688 6.062 -10 4 C-9.01 3.67 -8.02 3.34 -7 3 C-7 2.34 -7 1.68 -7 1 C-3.375 -1.125 -3.375 -1.125 0 0 Z " fill="#C5735A" transform="translate(142,58)"/>
<path d="M0 0 C0.33 1.32 0.66 2.64 1 4 C1.66 4.33 2.32 4.66 3 5 C2.67 6.65 2.34 8.3 2 10 C3.98 10 5.96 10 8 10 C8 10.66 8 11.32 8 12 C5.69 12 3.38 12 1 12 C0.67 13.32 0.34 14.64 0 16 C0 10.72 0 5.44 0 0 Z " fill="#B1562A" transform="translate(40,126)"/>
<path d="M0 0 C0.66 0.66 1.32 1.32 2 2 C3.32 1.34 4.64 0.68 6 0 C6.33 0.99 6.66 1.98 7 3 C4.64 5.36 3.221 5.491 0 6 C0 4.02 0 2.04 0 0 Z " fill="#C45D3B" transform="translate(138,52)"/>
<path d="M0 0 C0.99 0.33 1.98 0.66 3 1 C3 2.65 3 4.3 3 6 C2.67 6.165 2.67 6.165 1 7 C1 6.34 1 5.68 1 5 C-0.32 5.33 -1.64 5.66 -3 6 C-2.67 5.34 -2.34 4.68 -2 4 C-1.34 4 -0.68 4 0 4 C0 2.68 0 1.36 0 0 Z " fill="#B6441D" transform="translate(143,47)"/>
<path d="M0 0 C0.33 0.66 0.66 1.32 1 2 C0.34 2 -0.32 2 -1 2 C-1.289 2.598 -1.578 3.196 -1.875 3.812 C-3 6 -3 6 -5 9 C-5.99 8.67 -6.98 8.34 -8 8 C-7.046 6.851 -6.086 5.706 -5.125 4.562 C-4.591 3.924 -4.058 3.286 -3.508 2.629 C-2 1 -2 1 0 0 Z " fill="#D39075" transform="translate(107,6)"/>
<path d="M0 0 C0.33 0 0.66 0 1 0 C1.33 4.62 1.66 9.24 2 14 C1.01 14 0.02 14 -1 14 C-0.67 9.38 -0.34 4.76 0 0 Z " fill="#C04E2A" transform="translate(26,140)"/>
</svg>
